<svg width="24" height="24" viewBox="0 0 24 24" fill="none" xmlns="http://www.w3.org/2000/svg">
<path fill-rule="evenodd" clip-rule="evenodd" d="M12 0C5.373 0 0 5.373 0 12C0 18.627 5.373 24 12 24C18.627 24 24 18.627 24 12C24 5.373 18.627 0 12 0Z" fill="#1967D2"/>
<path fill-rule="evenodd" clip-rule="evenodd" d="M18 13H13V18C13 18.553 12.552 19 12 19C11.448 19 11 18.553 11 18V13H6C5.448 13 5 12.553 5 12C5 11.447 5.448 11 6 11H11V6C11 5.447 11.448 5 12 5C12.552 5 13 5.447 13 6V11H18C18.552 11 19 11.447 19 12C19 12.553 18.552 13 18 13Z" fill="white"/>
</svg>
