<svg width="24" height="24" viewBox="0 0 24 24" fill="none" xmlns="http://www.w3.org/2000/svg">
<path d="M19 8V6H17V4H19V2H21V4H23V6H21V8H19ZM3 22C2.45 22 1.979 21.804 1.587 21.412C1.195 21.02 0.999335 20.5493 1 20V8C1 7.45 1.196 6.979 1.588 6.587C1.98 6.195 2.45067 5.99933 3 6H6.15L8 4H14V6H8.875L7.05 8H3V20H19V11H21V20C21 20.55 20.804 21.021 20.412 21.413C20.02 21.805 19.5493 22.0007 19 22H3ZM11 18.5C12.25 18.5 13.3127 18.0623 14.188 17.187C15.0633 16.3117 15.5007 15.2493 15.5 14C15.5 12.75 15.0623 11.6873 14.187 10.812C13.3117 9.93667 12.2493 9.49933 11 9.5C9.75 9.5 8.68734 9.93767 7.812 10.813C6.93667 11.6883 6.49934 12.7507 6.5 14C6.5 15.25 6.93767 16.3127 7.813 17.188C8.68834 18.0633 9.75067 18.5007 11 18.5ZM11 16.5C10.3 16.5 9.70834 16.2583 9.225 15.775C8.74167 15.2917 8.5 14.7 8.5 14C8.5 13.3 8.74167 12.7083 9.225 12.225C9.70834 11.7417 10.3 11.5 11 11.5C11.7 11.5 12.2917 11.7417 12.775 12.225C13.2583 12.7083 13.5 13.3 13.5 14C13.5 14.7 13.2583 15.2917 12.775 15.775C12.2917 16.2583 11.7 16.5 11 16.5Z" fill="#2196F3"/>
</svg>
