<svg width="20" height="20" viewBox="0 0 20 20" fill="none" xmlns="http://www.w3.org/2000/svg">
<circle cx="10" cy="10" r="10" fill="#1967D2"/>
<path d="M10.751 9.24899H14.249C14.6643 9.24899 15.0005 9.58519 15 10C15 10.4153 14.6638 10.7515 14.249 10.751C14.0859 10.7515 10.751 10.751 10.751 10.751V14.249C10.751 14.6643 10.4148 15.0005 10 15C9.58466 15 9.24846 14.6638 9.24899 14.249C9.24846 14.0859 9.24899 10.751 9.24899 10.751H5.75101C5.33567 10.751 4.99947 10.4148 5 10C5 9.58466 5.3362 9.24846 5.75101 9.24899C5.91406 9.24846 9.24899 9.24899 9.24899 9.24899V5.75101C9.24899 5.33567 9.58519 4.99947 10 5C10.4153 5 10.7515 5.3362 10.751 5.75101C10.7515 5.91406 10.751 9.24899 10.751 9.24899Z" fill="white"/>
</svg>
