<svg width="25" height="32" viewBox="0 0 25 32" fill="none" xmlns="http://www.w3.org/2000/svg">
<path d="M8.89474 23.1053V31M15.2105 23.1053V31M15.2105 12.0526L18.3684 23.1053H5.73684L8.89474 12.0526M15.2105 12.0526H8.89474M15.2105 12.0526C17.8426 12.0526 20.4732 13.1058 23.1053 15.2105M8.89474 12.0526C6.26263 12.0526 3.63211 13.1058 1 15.2105M8.89474 4.15789C8.89474 4.99542 9.22744 5.79864 9.81966 6.39086C10.4119 6.98308 11.2151 7.31579 12.0526 7.31579C12.8902 7.31579 13.6934 6.98308 14.2856 6.39086C14.8778 5.79864 15.2105 4.99542 15.2105 4.15789C15.2105 3.32037 14.8778 2.51715 14.2856 1.92493C13.6934 1.33271 12.8902 1 12.0526 1C11.2151 1 10.4119 1.33271 9.81966 1.92493C9.22744 2.51715 8.89474 3.32037 8.89474 4.15789Z" stroke="white" stroke-width="2" stroke-linecap="round" stroke-linejoin="round"/>
</svg>
