<svg width="20" height="24" viewBox="0 0 20 24" fill="none" xmlns="http://www.w3.org/2000/svg">
<path fill-rule="evenodd" clip-rule="evenodd" d="M11.8182 2.11373C14.4468 2.90808 16.3636 5.38059 16.3636 8.30769V10.8526C16.3636 13.3606 17.3445 15.7652 19.0909 17.5385C19.593 17.5385 20 17.9517 20 18.4615C20 18.9713 19.593 19.3846 19.0909 19.3846H0.909091C0.407014 19.3846 0 18.9713 0 18.4615C0 17.9517 0.407014 17.5385 0.909091 17.5385C2.65545 15.7652 3.63636 13.3606 3.63636 10.8526V8.30769C3.63636 5.38059 5.55319 2.90808 8.18182 2.11373V1.84615C8.18182 0.826154 8.99545 0 10 0C11.0045 0 11.8182 0.826154 11.8182 1.84615V2.11373ZM10 24C11.5064 24 12.7273 22.7603 12.7273 21.2308H7.27273C7.27273 22.7603 8.49364 24 10 24Z" fill="#C8C7CC"/>
</svg>
