<svg width="40" height="39" viewBox="0 0 40 39" fill="none" xmlns="http://www.w3.org/2000/svg">
<path fill-rule="evenodd" clip-rule="evenodd" d="M29.8284 1.75107C32.1563 -0.583691 35.9262 -0.583691 38.2541 1.75107C39.3704 2.86969 40 4.38639 40 5.97276C40 7.55714 39.3704 9.07384 38.2541 10.1944L20.8665 27.6206C21.0155 25.4072 20.2786 23.1461 18.5922 21.4543C16.9039 19.7644 14.6496 19.0259 12.4408 19.1732L29.8284 1.75107ZM2.962 31.1286C2.85725 29.015 2.75543 26.9603 5.44033 24.2697C8.29456 21.4095 12.9245 21.4095 15.7807 24.2697C18.6389 27.1319 18.6389 31.7716 15.7807 34.6338C10.255 40.1732 0 38.8655 0 38.8655C3.18707 35.6707 3.0729 33.3666 2.962 31.1286Z" fill="white"/>
</svg>
