<svg width="20" height="19" viewBox="0 0 20 19" fill="none" xmlns="http://www.w3.org/2000/svg">
<path fill-rule="evenodd" clip-rule="evenodd" d="M17.2727 10.8571H13.6364V7.2381H17.2727V10.8571ZM11.8182 10.8571H8.18182V7.2381H11.8182V10.8571ZM11.8182 16.2857H8.18182V12.6667H11.8182V16.2857ZM6.36364 10.8571H2.72727V7.2381H6.36364V10.8571ZM6.36364 16.2857H2.72727V12.6667H6.36364V16.2857ZM18.1818 1.80952H16.3636V0H14.5455V4.52381H12.7273V1.80952H7.27273V0H5.45455V4.52381H3.63636V1.80952H1.81818C0.815455 1.80952 0 2.622 0 3.61905V17.1905C0 18.1884 0.815455 19 1.81818 19H18.1818C19.1845 19 20 18.1884 20 17.1905V3.61905C20 2.622 19.1845 1.80952 18.1818 1.80952Z" fill="#1967D2"/>
</svg>
