<svg width="14" height="16" viewBox="0 0 14 16" fill="none" xmlns="http://www.w3.org/2000/svg">
<path fill-rule="evenodd" clip-rule="evenodd" d="M12.4444 1.60001H11.6667V0H10.1111V1.60001H3.88889V0H2.33333V1.60001H1.55556C0.696134 1.60001 0.00780206 2.316 0.00780206 3.20002L0 14.4C0 15.284 0.696097 16 1.55556 16H12.4444C13.3039 16 14 15.284 14 14.4V3.19999C14 2.316 13.3039 1.60001 12.4444 1.60001ZM12.4444 14.4H1.55556V5.59998H12.4444V14.4ZM9.69888 7.19999L10.5233 8.04798L5.90332 12.8L3.42999 10.256L4.25446 9.40799L5.90332 11.104L9.69888 7.19999Z" fill="#8A8A8F"/>
</svg>
