<svg width="20" height="20" viewBox="0 0 20 20" fill="none" xmlns="http://www.w3.org/2000/svg">
<path d="M14.9781 12.9466C14.6251 12.7397 14.1912 12.744 13.8399 12.9527L12.0608 14.0127C11.6625 14.2501 11.1651 14.2223 10.7999 13.9371C10.1686 13.444 9.15211 12.6145 8.26777 11.7301C7.38342 10.8458 6.55387 9.82926 6.06083 9.19796C5.77561 8.83275 5.74779 8.33536 5.98518 7.9371L7.04517 6.15798C7.25473 5.80668 7.25647 5.36929 7.04951 5.01625L4.4391 0.557155C4.18606 0.125854 3.68345 -0.0863185 3.19737 0.0328111C2.7252 0.147593 2.11216 0.427591 1.46956 1.07106C-0.542597 3.08322 -1.61128 6.47711 5.95561 14.044C13.5225 21.6109 16.9155 20.5431 18.9285 18.5301C19.5729 17.8857 19.852 17.2718 19.9677 16.7988C20.0851 16.3136 19.8764 15.8144 19.4459 15.5623C18.3712 14.9336 16.0529 13.5762 14.9781 12.9466Z" fill="black"/>
</svg>
