<svg width="20" height="19" viewBox="0 0 20 19" fill="none" xmlns="http://www.w3.org/2000/svg">
<path fill-rule="evenodd" clip-rule="evenodd" d="M12.999 9H9.499C9.223 9 8.999 9.225 8.999 9.5C8.999 9.776 9.223 10 9.499 10H10.499C11.877 10 12.999 11.122 12.999 12.5C12.999 13.708 12.139 14.718 10.999 14.95V16H8.999V15H6.999V13H10.499C10.775 13 10.999 12.776 10.999 12.5C10.999 12.225 10.775 12 10.499 12H9.499C8.121 12 6.999 10.878 6.999 9.5C6.999 8.293 7.859 7.283 8.999 7.051V6H10.999V7H12.999V9ZM8 2H12V3H8V2ZM18 3V2H16V3H14V1C14 0.448 13.552 0 13 0H7C6.447 0 6 0.448 6 1V3H4V2H2V3C0.897 3 0 3.897 0 5V17C0 18.104 0.897 19 2 19H18C19.103 19 20 18.104 20 17V5C20 3.897 19.103 3 18 3Z" fill="#1967D2"/>
</svg>
