<svg width="24" height="23" viewBox="0 0 24 23" fill="none" xmlns="http://www.w3.org/2000/svg">
<path fill-rule="evenodd" clip-rule="evenodd" d="M0 10.12C0 4.531 5.37231 0 12 0C18.6277 0 24 4.531 24 10.12C24 15.709 18.6277 20.24 12 20.24C11.1028 20.24 10.2295 20.1563 9.38954 19.9971C8.81631 19.8895 8.23477 20.09 7.81754 20.4958C6.49385 21.7819 4.572 23 2.30769 23C2.05279 23 1.84615 22.7941 1.84615 22.54C1.84615 22.3388 1.97581 22.1677 2.1564 22.1053C4.10405 21.2038 4.32354 19.2561 4.25723 17.8452C1.656 15.9887 0 13.2186 0 10.12Z" fill="#C8C7CC"/>
</svg>
