<svg width="15" height="15" viewBox="0 0 15 15" fill="none" xmlns="http://www.w3.org/2000/svg">
<path d="M7.5 14C8.78558 14 10.0423 13.6188 11.1112 12.9046C12.1801 12.1903 13.0132 11.1752 13.5052 9.98744C13.9972 8.79972 14.1259 7.49279 13.8751 6.23192C13.6243 4.97104 13.0052 3.81285 12.0962 2.90381C11.1871 1.99477 10.029 1.3757 8.76808 1.1249C7.50721 0.874095 6.20028 1.00282 5.01256 1.49479C3.82484 1.98676 2.80968 2.81988 2.09545 3.8888C1.38122 4.95772 1 6.21442 1 7.5C1 8.57467 1.26 9.58795 1.72222 10.4806L1 14L4.51939 13.2778C5.41205 13.74 6.42605 14 7.5 14Z" stroke="black" stroke-linecap="round" stroke-linejoin="round"/>
</svg>
