<svg width="20" height="20" viewBox="0 0 20 20" fill="none" xmlns="http://www.w3.org/2000/svg">
<path fill-rule="evenodd" clip-rule="evenodd" d="M16 18C15.448 18 15 17.552 15 17C15 16.448 15.448 16 16 16C16.552 16 17 16.448 17 17C17 17.552 16.552 18 16 18ZM18 14H2C0.896 14 0 14.896 0 16V18C0 19.104 0.896 20 2 20H18C19.105 20 20 19.104 20 18V16C20 14.896 19.105 14 18 14ZM5.5 9.4995H14.5V3.4995H5.5V9.4995ZM15.5 10C15.5 10.276 15.276 10.5 15 10.5H5C4.724 10.5 4.5 10.276 4.5 10V3C4.5 2.724 4.724 2.5 5 2.5H15C15.276 2.5 15.5 2.724 15.5 3V10ZM16 0H4C2.897 0 2 0.897 2 2V11C2 12.103 2.897 13 4 13H16C17.103 13 18 12.103 18 11V2C18 0.897 17.103 0 16 0Z" fill="black"/>
</svg>
