<svg width="18" height="30" viewBox="0 0 18 30" fill="none" xmlns="http://www.w3.org/2000/svg">
<path fill-rule="evenodd" clip-rule="evenodd" d="M3 1.5H15C15.8284 1.5 16.5 2.17157 16.5 3V27C16.5 27.8284 15.8284 28.5 15 28.5H3C2.17157 28.5 1.5 27.8284 1.5 27V3C1.5 2.17157 2.17157 1.5 3 1.5ZM0 3C0 1.34315 1.34315 0 3 0H15C16.6569 0 18 1.34315 18 3V27C18 28.6569 16.6569 30 15 30H3C1.34315 30 0 28.6569 0 27V3ZM4.4999 1.5C4.4999 2.32843 5.17147 3 5.9999 3H11.9999C12.8283 3 13.4999 2.32843 13.4999 1.5H4.4999Z" fill="#05142D" fill-opacity="0.5"/>
</svg>
