<svg width="137" height="137" viewBox="0 0 137 137" fill="none" xmlns="http://www.w3.org/2000/svg">
<path d="M123.928 49.7194C131.063 42.584 127.81 34.2498 123.928 30.1969L106.803 13.0719C99.6106 5.93649 91.3335 9.19025 87.2806 13.0719L77.5764 22.8332H62.7918C51.9459 22.8332 45.6668 28.5415 42.4701 35.1061L17.1251 60.4511V83.2845L13.0722 87.2803C5.93674 94.4728 9.19049 102.75 13.0722 106.803L30.1972 123.928C33.2797 127.01 36.5905 128.152 39.7301 128.152C43.783 128.152 47.4934 126.154 49.7197 123.928L65.1322 108.458H85.6251C95.3293 108.458 100.238 102.407 102.008 96.4707C108.458 94.7582 111.998 89.8491 113.425 85.0541C122.273 82.7707 125.583 74.3795 125.583 68.4999V51.3749H122.216L123.928 49.7194ZM114.167 68.4999C114.167 71.0686 113.082 74.2082 108.458 74.2082H102.75V79.9165C102.75 82.4853 101.666 85.6249 97.0418 85.6249H91.3335V91.3332C91.3335 93.902 90.2489 97.0416 85.6251 97.0416H60.4514L41.728 115.765C39.9584 117.42 38.9309 116.45 38.303 115.822L21.2351 98.8111C19.5797 97.0416 20.5501 96.0141 21.178 95.3861L28.5418 87.9653V65.132L39.9584 53.7153V62.7915C39.9584 69.6986 44.5251 79.9165 57.0834 79.9165C69.6418 79.9165 74.2085 69.6986 74.2085 62.7915H114.167V68.4999ZM115.822 41.6136L106.118 51.3749H62.7918V62.7915C62.7918 65.3603 61.7072 68.4999 57.0834 68.4999C52.4597 68.4999 51.3751 65.3603 51.3751 62.7915V45.6665C51.3751 43.0407 52.3455 34.2498 62.7918 34.2498H82.2572L95.2722 21.2348C97.0418 19.5794 98.0693 20.5498 98.6972 21.1778L115.765 38.1886C117.421 39.9582 116.45 40.9857 115.822 41.6136Z" fill="#2196F3"/>
</svg>
