<svg width="106" height="106" viewBox="0 0 106 106" fill="none" xmlns="http://www.w3.org/2000/svg">
<path d="M52.8889 0C42.4285 0 32.203 3.10188 23.5054 8.91338C14.8079 14.7249 8.02899 22.985 4.02595 32.6492C0.0229158 42.3134 -1.02446 52.9476 1.01627 63.207C3.057 73.4664 8.09418 82.8903 15.4908 90.287C22.8875 97.6836 32.3114 102.721 42.5708 104.762C52.8302 106.802 63.4644 105.755 73.1286 101.752C82.7928 97.7488 91.0529 90.9699 96.8644 82.2724C102.676 73.5749 105.778 63.3493 105.778 52.8889C105.778 38.8619 100.206 25.4094 90.287 15.4908C80.3684 5.57221 66.9159 0 52.8889 0ZM87.465 35.1711C87.4468 35.1529 87.4172 35.1528 87.3989 35.1711L56.0178 66.5283C49.3781 73.1629 38.6179 73.1609 31.9807 66.5238L18.3459 52.8889C17.4692 52.0122 16.9767 50.8232 16.9767 49.5833C16.9767 48.3435 17.4692 47.1545 18.3459 46.2778C19.2225 45.4011 20.4116 44.9086 21.6514 44.9086C22.8912 44.9086 24.0803 45.4011 24.957 46.2778L32.0477 53.3685C38.6845 60.0053 49.4441 60.0077 56.0839 53.3739L80.887 28.5931C81.3211 28.159 81.8364 27.8146 82.4036 27.5797C82.9707 27.3448 83.5786 27.2239 84.1925 27.2239C84.8064 27.2239 85.4143 27.3448 85.9815 27.5797C86.5486 27.8146 87.064 28.159 87.4981 28.5931C87.9322 29.0271 88.2765 29.5425 88.5114 30.1097C88.7464 30.6768 88.8673 31.2847 88.8673 31.8986C88.8673 32.5125 88.7464 33.1204 88.5114 33.6876C88.2825 34.2403 87.9496 34.7439 87.531 35.1709C87.5129 35.1894 87.4833 35.1894 87.465 35.1711Z" fill="white"/>
</svg>
