<svg width="14" height="14" viewBox="0 0 14 14" fill="none" xmlns="http://www.w3.org/2000/svg">
<path fill-rule="evenodd" clip-rule="evenodd" d="M12.8335 4.08323L13.6583 3.25839C14.1139 2.8028 14.1139 2.06429 13.6583 1.6087L12.3913 0.341691C11.9357 -0.113897 11.1972 -0.113897 10.7416 0.341691L9.91677 1.16653L12.8335 4.08323ZM0.0228765 13.5949L0.67259 11.7559L2.24469 13.328L0.392004 13.9825L0.39185 13.9823C0.360609 13.9938 0.326868 14 0.29167 14C0.130585 14 0 13.8694 0 13.7083C0 13.6681 0.00814521 13.6298 0.0228765 13.5949ZM1.75002 9.33328L8.75009 2.33321L11.6668 5.24991L4.66672 12.25L4.37505 11.375L2.9167 11.0833L2.62503 9.62495L1.75002 9.33328Z" fill="white"/>
</svg>
