<svg width="14" height="26" viewBox="0 0 14 26" fill="none" xmlns="http://www.w3.org/2000/svg">
<path d="M4.5 25.5V18H0.75L4.5625 8.375C4.77083 7.875 5.09375 7.47917 5.53125 7.1875C5.96875 6.89584 6.45833 6.75 7 6.75C7.54167 6.75 8.03125 6.89584 8.46875 7.1875C8.90625 7.47917 9.22917 7.875 9.4375 8.375L13.25 18H9.5V25.5H4.5ZM7 5.5C6.3125 5.5 5.72375 5.255 5.23375 4.765C4.74375 4.275 4.49917 3.68667 4.5 3C4.5 2.3125 4.745 1.72375 5.235 1.23375C5.725 0.743752 6.31333 0.499169 7 0.500002C7.6875 0.500002 8.27625 0.745002 8.76625 1.235C9.25625 1.725 9.50083 2.31334 9.5 3C9.5 3.6875 9.255 4.27625 8.765 4.76625C8.275 5.25625 7.68667 5.50084 7 5.5Z" fill="white"/>
</svg>
