<svg width="12" height="14" viewBox="0 0 12 14" fill="none" xmlns="http://www.w3.org/2000/svg">
<path d="M11.8106 0.95025C11.6923 0.868 11.5423 0.853125 11.4103 0.9065C11.3829 0.917875 8.54743 2.05625 6.18257 0.917C4.14429 -0.0665 1.89943 0.39375 0.857143 0.704375V0.4375C0.857143 0.196 0.665143 0 0.428571 0C0.192 0 0 0.196 0 0.4375V1.3125V8.3125V13.5625C0 13.804 0.192 14 0.428571 14C0.665143 14 0.857143 13.804 0.857143 13.5625V8.62225C1.61743 8.37112 3.87343 7.77087 5.81743 8.708C6.744 9.15513 7.71343 9.30387 8.59371 9.30387C10.2866 9.30387 11.6477 8.7535 11.7326 8.7185C11.8937 8.65112 12 8.491 12 8.3125V1.3125C12 1.16725 11.9289 1.03163 11.8106 0.95025Z" fill="#1967D2"/>
</svg>
