<svg width="24" height="24" viewBox="0 0 24 24" fill="none" xmlns="http://www.w3.org/2000/svg">
<path fill-rule="evenodd" clip-rule="evenodd" d="M21.7091 10.9091C21.1636 6.32727 17.5636 2.72727 13.0909 2.29091V0H10.9091V2.29091C6.32727 2.72727 2.72727 6.32727 2.29091 10.9091H0V13.0909H2.29091C2.83636 17.6727 6.43636 21.2727 10.9091 21.7091V24H13.0909V21.7091C17.6727 21.1636 21.2727 17.5636 21.7091 13.0909H24V10.9091H21.7091ZM12 7.63636C9.6 7.63636 7.63636 9.6 7.63636 12C7.63636 14.4 9.6 16.3636 12 16.3636C14.4 16.3636 16.3636 14.4 16.3636 12C16.3636 9.6 14.4 7.63636 12 7.63636ZM4.36364 12C4.36364 16.2545 7.74545 19.6364 12 19.6364C16.2545 19.6364 19.6364 16.2545 19.6364 12C19.6364 7.74545 16.2545 4.36364 12 4.36364C7.74545 4.36364 4.36364 7.74545 4.36364 12Z" fill="white"/>
</svg>
