<svg width="11" height="16" viewBox="0 0 11 16" fill="none" xmlns="http://www.w3.org/2000/svg">
<path fill-rule="evenodd" clip-rule="evenodd" d="M10.9884 8.41957L11 3.47544C11 3.1046 10.7215 2.77236 10.3438 2.73753C9.91016 2.69706 9.54496 3.02931 9.54496 3.44532V7.7739C9.54496 7.98379 9.37055 8.1532 9.15662 8.1532C8.94174 8.1532 8.76829 7.98379 8.76829 7.7739V1.81704C8.76829 1.44621 8.49077 1.1149 8.11208 1.07914C7.67846 1.03867 7.31325 1.37091 7.31325 1.78692V7.09341C7.31325 7.30236 7.1398 7.47178 6.92492 7.47178C6.711 7.47178 6.53755 7.30236 6.53755 7.09341V0.741246C6.53755 0.369471 6.25907 0.0381684 5.88133 0.00334392C5.44675 -0.0371277 5.08154 0.295116 5.08154 0.710186V7.7739C5.08154 7.98379 4.90809 8.1532 4.69417 8.1532C4.47929 8.1532 4.30584 7.98379 4.30584 7.7739V2.52765C4.30584 2.15681 4.02832 1.82551 3.64963 1.78974C3.216 1.74927 2.8508 2.08152 2.8508 2.49753V8.41957V10.237C2.8508 10.4093 2.61279 10.4657 2.53281 10.3123L1.85058 9.01252C1.60678 8.54663 1.0238 8.33015 0.543929 8.56169C0.0515276 8.79887 -0.137339 9.37583 0.105489 9.84266L1.92863 13.3439L2.36996 14.1854C2.95487 15.2988 4.1295 16 5.41109 16H7.5715C9.35705 16 10.8073 14.6569 10.9595 12.9505L10.9884 8.41957Z" fill="white"/>
</svg>
