<svg width="24" height="23" viewBox="0 0 24 23" fill="none" xmlns="http://www.w3.org/2000/svg">
<path d="M23.6993 11.2218C24.1344 10.7481 24.0924 10.0222 23.6055 9.60074L12.8796 0.310376C12.3928 -0.111069 11.6122 -0.102241 11.1356 0.330278L0.373268 10.0961C-0.103331 10.5286 -0.126723 11.2536 0.321477 11.7148L0.591305 11.993C1.03896 12.4541 1.76254 12.5091 2.20644 12.1154L3.01076 11.4024V21.8411C3.01076 22.4815 3.535 23 4.18152 23H8.37672C9.02324 23 9.54748 22.4815 9.54748 21.8411V14.5382H14.8985V21.8411C14.8892 22.4811 15.3518 22.9995 15.9983 22.9995H20.4442C21.0907 22.9995 21.6149 22.4811 21.6149 21.8406V11.5494C21.6149 11.5494 21.8371 11.742 22.1112 11.9805C22.3848 12.2185 22.9594 12.0276 23.3944 11.5535L23.6993 11.2218Z" fill="#1967D2"/>
</svg>
