<svg width="10" height="12" viewBox="0 0 10 12" fill="none" xmlns="http://www.w3.org/2000/svg">
<path fill-rule="evenodd" clip-rule="evenodd" d="M1.25 0H8.75C9.44063 0 10 0.537 10 1.2V10.8C10 11.4624 9.44063 12 8.75 12H1.25C0.559375 12 0 11.4624 0 10.8V1.2C0 0.537 0.559375 0 1.25 0ZM4.375 5.649L2.05813 3.4242L2.94187 2.5758L4.375 3.9516L7.05813 1.3758L7.94187 2.2242L4.375 5.649ZM4.375 10.449L2.05813 8.2242L2.94187 7.3758L4.375 8.7516L7.05813 6.1758L7.94187 7.0242L4.375 10.449Z" fill="#8A8A8F"/>
</svg>
