<svg width="40" height="33" viewBox="0 0 40 33" fill="none" xmlns="http://www.w3.org/2000/svg">
<path fill-rule="evenodd" clip-rule="evenodd" d="M21.6667 9.9H36.6667C38.505 9.9 40 11.38 40 13.2V29.7C40 31.52 38.505 33 36.6667 33H3.33333C1.495 33 0 31.52 0 29.7V13.2C0 11.38 1.495 9.9 3.33333 9.9H18.3333V8.25C18.3333 5.5209 20.5767 3.3 23.3333 3.3H25C25.9183 3.3 26.6667 2.55915 26.6667 1.65V0H30V1.65C30 4.3791 27.7567 6.6 25 6.6H23.3333C22.415 6.6 21.6667 7.34085 21.6667 8.25V9.9ZM8.33333 14.85C8.33333 15.7625 9.08 16.5 10 16.5C10.92 16.5 11.6667 15.7625 11.6667 14.85C11.6667 13.9392 10.92 13.2 10 13.2C9.08 13.2 8.33333 13.9392 8.33333 14.85ZM25 16.5C24.08 16.5 23.3333 15.7625 23.3333 14.85C23.3333 13.9392 24.08 13.2 25 13.2C25.92 13.2 26.6667 13.9392 26.6667 14.85C26.6667 15.7625 25.92 16.5 25 16.5ZM28.3333 14.85C28.3333 15.7625 29.08 16.5 30 16.5C30.92 16.5 31.6667 15.7625 31.6667 14.85C31.6667 13.9392 30.92 13.2 30 13.2C29.08 13.2 28.3333 13.9392 28.3333 14.85ZM28.3333 21.45C28.3333 22.3624 29.08 23.1 30 23.1C30.92 23.1 31.6667 22.3624 31.6667 21.45C31.6667 20.5392 30.92 19.8 30 19.8C29.08 19.8 28.3333 20.5392 28.3333 21.45ZM23.3333 21.45C23.3333 22.3624 24.08 23.1 25 23.1C25.92 23.1 26.6667 22.3624 26.6667 21.45C26.6667 20.5392 25.92 19.8 25 19.8C24.08 19.8 23.3333 20.5392 23.3333 21.45ZM26.6667 26.4V29.7H13.3333V26.4H26.6667ZM10 23.1C9.08 23.1 8.33333 22.3624 8.33333 21.45C8.33333 20.5392 9.08 19.8 10 19.8C10.92 19.8 11.6667 20.5392 11.6667 21.45C11.6667 22.3624 10.92 23.1 10 23.1ZM16.6667 21.45C16.6667 20.5392 15.92 19.8 15 19.8C14.08 19.8 13.3333 20.5392 13.3333 21.45C13.3333 22.3624 14.08 23.1 15 23.1C15.92 23.1 16.6667 22.3624 16.6667 21.45ZM15 13.2C15.92 13.2 16.6667 13.9392 16.6667 14.85C16.6667 15.7625 15.92 16.5 15 16.5C14.08 16.5 13.3333 15.7625 13.3333 14.85C13.3333 13.9392 14.08 13.2 15 13.2ZM21.6667 21.45C21.6667 20.5392 20.92 19.8 20 19.8C19.08 19.8 18.3333 20.5392 18.3333 21.45C18.3333 22.3624 19.08 23.1 20 23.1C20.92 23.1 21.6667 22.3624 21.6667 21.45ZM20 13.2C20.92 13.2 21.6667 13.9392 21.6667 14.85C21.6667 15.7625 20.92 16.5 20 16.5C19.08 16.5 18.3333 15.7625 18.3333 14.85C18.3333 13.9392 19.08 13.2 20 13.2Z" fill="white"/>
</svg>
