<svg width="52" height="64" viewBox="0 0 52 64" fill="none" xmlns="http://www.w3.org/2000/svg">
<path fill-rule="evenodd" clip-rule="evenodd" d="M26 0C11.6409 0 0 11.6771 0 26.0808C0 43.2325 16.9047 51.4433 19.0225 53.3543C21.1853 55.3056 22.9722 59.6801 23.6931 62.1601C24.0429 63.3646 25.0262 63.9739 26 64C26.9762 63.9715 27.9571 63.3622 28.3069 62.1601C29.0278 59.6801 30.8147 55.308 32.9775 53.3543C35.0953 51.4433 52 43.2325 52 26.0808C52 11.6771 40.3591 0 26 0ZM26 33.1938C22.0835 33.1938 18.9091 30.0096 18.9091 26.0808C18.9091 22.1521 22.0835 18.9679 26 18.9679C29.9165 18.9679 33.0909 22.1521 33.0909 26.0808C33.0909 30.0096 29.9165 33.1938 26 33.1938Z" fill="#1967D2"/>
</svg>
