<svg width="18" height="20" viewBox="0 0 18 20" fill="none" xmlns="http://www.w3.org/2000/svg">
<path d="M2.84328 2.56831C6.24369 -0.832097 11.7568 -0.832097 15.1573 2.56831C18.5577 5.96872 18.5577 11.4819 15.1573 14.8823L13.9703 16.0562C13.0954 16.9149 11.9603 18.0188 10.5644 19.3684C9.69218 20.2117 8.30836 20.2116 7.43624 19.3681L3.94515 15.9723C3.50638 15.5414 3.13912 15.1781 2.84328 14.8823C-0.557134 11.4819 -0.557134 5.96872 2.84328 2.56831ZM14.0966 3.62897C11.282 0.814349 6.71856 0.814349 3.90394 3.62897C1.08931 6.4436 1.08931 11.007 3.90394 13.8216L5.39101 15.2891C6.20992 16.0905 7.23938 17.0909 8.47906 18.2899C8.76976 18.5711 9.23104 18.5711 9.52178 18.29L12.9167 14.9885C13.3856 14.5282 13.779 14.1393 14.0966 13.8216C16.9112 11.007 16.9112 6.4436 14.0966 3.62897ZM9.00026 5.99897C10.658 5.99897 12.0018 7.34281 12.0018 9.00052C12.0018 10.6582 10.658 12.0021 9.00026 12.0021C7.34255 12.0021 5.99871 10.6582 5.99871 9.00052C5.99871 7.34281 7.34255 5.99897 9.00026 5.99897ZM9.00026 7.49897C8.17098 7.49897 7.49871 8.17124 7.49871 9.00052C7.49871 9.8298 8.17098 10.5021 9.00026 10.5021C9.82955 10.5021 10.5018 9.8298 10.5018 9.00052C10.5018 8.17124 9.82955 7.49897 9.00026 7.49897Z" fill="#434343"/>
</svg>
