<svg width="11" height="16" viewBox="0 0 11 16" fill="none" xmlns="http://www.w3.org/2000/svg">
<path fill-rule="evenodd" clip-rule="evenodd" d="M6 11.2562V13.9636H5V11.2562C4.419 11.0555 4 10.5232 4 9.89091C4 9.08703 4.672 8.43636 5.5 8.43636C6.328 8.43636 7 9.08703 7 9.89091C7 10.5232 6.581 11.0555 6 11.2562ZM2.5 3.87879C2.5 2.27394 3.846 0.969697 5.5 0.969697C7.154 0.969697 8.5 2.27394 8.5 3.87879V6.30303H2.5V3.87879ZM10 6.30303H9.5V3.87879C9.5 1.73964 7.706 0 5.5 0C3.294 0 1.5 1.73964 1.5 3.87879V6.30303H1C0.448 6.30303 0 6.73649 0 7.27273V15.0303C0 15.5656 0.448 16 1 16H10C10.552 16 11 15.5656 11 15.0303V7.27273C11 6.73649 10.552 6.30303 10 6.30303Z" fill="white"/>
</svg>
