<svg width="216" height="40" viewBox="0 0 216 40" fill="none" xmlns="http://www.w3.org/2000/svg">
<path fill-rule="evenodd" clip-rule="evenodd" d="M9.96281 39.4271L0 1.84896H8.16325L14.1096 28.776H14.2661L21.2036 1.84896H28.1149L35.0524 28.776H35.2089L41.1814 1.84896H49.3446L39.3557 39.4271H31.6619L24.7505 14.2448H24.5941L17.6566 39.4271H9.96281ZM62.5153 40C53.9609 40 48.7708 34.4531 48.7708 25.5208V25.4948C48.7708 16.6146 54.013 10.9375 62.2024 10.9375C70.3917 10.9375 75.5296 16.4844 75.5296 24.9219V27.2656H56.2821C56.3603 31.7188 58.7858 34.3229 62.6718 34.3229C65.8015 34.3229 67.7054 32.6042 68.2531 31.0417L68.3052 30.8854H75.2949L75.2166 31.1719C74.3559 35.2865 70.496 40 62.5153 40ZM62.3328 16.6146C59.2031 16.6146 56.8558 18.6979 56.3603 22.474H68.227C67.7575 18.6198 65.4885 16.6146 62.3328 16.6146ZM79.4417 39.4271V11.5104H87.0572V16.3802H87.2137C88.0483 12.9427 90.3173 10.9375 93.5774 10.9375C94.412 10.9375 95.1944 11.0677 95.7682 11.224V17.9167C95.1422 17.6562 94.099 17.5 93.0036 17.5C89.248 17.5 87.0572 19.7396 87.0572 23.8021V39.4271H79.4417ZM99.1326 39.4271V1.84896H106.748V22.6823H106.905L116.346 11.5104H124.979L114.416 23.5156L125.5 39.4271H116.711L108.704 28.0208L106.748 30.1823V39.4271H99.1326ZM138.723 40C132.516 40 129.595 37.6042 129.595 31.6146V17.2396H125.709V11.5104H129.595V4.6875H137.289V11.5104H142.4V17.2396H137.289V30.7812C137.289 33.3854 138.462 34.2708 140.757 34.2708C141.309 34.2708 141.74 34.2191 142.134 34.1718C142.204 34.1634 142.272 34.1552 142.34 34.1475C142.36 34.1451 142.38 34.1429 142.4 34.1406V39.7135C141.54 39.8438 140.314 40 138.723 40ZM150.564 7.91667C148.269 7.91667 146.495 6.11979 146.495 3.95833C146.495 1.79688 148.269 0 150.564 0C152.859 0 154.632 1.79688 154.632 3.95833C154.632 6.11979 152.859 7.91667 150.564 7.91667ZM146.756 39.4271V11.5104H154.371V39.4271H146.756ZM190.05 11.5104H197.665V16.0938H197.822C199.256 12.8906 202.125 10.9375 206.35 10.9375C212.505 10.9375 216 14.8698 216 21.4062V39.4271H208.384V22.9688C208.384 19.3229 206.663 17.2396 203.247 17.2396C199.83 17.2396 197.665 19.7396 197.665 23.3854V39.4271H190.05V11.5104ZM170.777 39.9403C163.158 39.3262 158.44 34.0059 158.44 25.4688V25.4167C158.44 16.4323 163.917 10.9375 172.263 10.9375C180.635 10.9375 186.138 16.3802 186.138 25.4167V25.4688C186.138 34.0928 181.304 39.4062 173.626 39.9532C173.631 39.9055 173.633 39.8569 173.633 39.8077V22.3558L177.353 26.1058C177.926 26.6827 178.832 26.6827 179.356 26.1058C179.929 25.5288 179.929 24.6154 179.404 24.0385L173.299 17.9327C173.013 17.6442 172.679 17.5 172.298 17.5C171.916 17.5 171.582 17.6442 171.296 17.9327L165.239 24.0385C164.666 24.6154 164.666 25.5288 165.239 26.0577C165.811 26.6346 166.717 26.6346 167.242 26.0577L170.771 22.5V39.8077C170.771 39.8525 170.773 39.8967 170.777 39.9403Z" fill="white"/>
</svg>
