<svg width="20" height="26" viewBox="0 0 20 26" fill="none" xmlns="http://www.w3.org/2000/svg">
<path d="M4.375 0.5C5.03804 0.5 5.67393 0.763392 6.14277 1.23223C6.61161 1.70107 6.875 2.33696 6.875 3C6.875 3.66304 6.61161 4.29893 6.14277 4.76777C5.67393 5.23661 5.03804 5.5 4.375 5.5C3.71196 5.5 3.07607 5.23661 2.60723 4.76777C2.13839 4.29893 1.875 3.66304 1.875 3C1.875 2.33696 2.13839 1.70107 2.60723 1.23223C3.07607 0.763392 3.71196 0.5 4.375 0.5ZM2.5 6.75H6.25C6.91304 6.75 7.54893 7.01339 8.01777 7.48223C8.48661 7.95107 8.75 8.58696 8.75 9.25V16.125H6.875V25.5H1.875V16.125H0V9.25C0 8.58696 0.263392 7.95107 0.732233 7.48223C1.20107 7.01339 1.83696 6.75 2.5 6.75ZM15.625 0.5C16.288 0.5 16.9239 0.763392 17.3928 1.23223C17.8616 1.70107 18.125 2.33696 18.125 3C18.125 3.66304 17.8616 4.29893 17.3928 4.76777C16.9239 5.23661 16.288 5.5 15.625 5.5C14.962 5.5 14.3261 5.23661 13.8572 4.76777C13.3884 4.29893 13.125 3.66304 13.125 3C13.125 2.33696 13.3884 1.70107 13.8572 1.23223C14.3261 0.763392 14.962 0.5 15.625 0.5ZM13.75 6.75H17.5C18.163 6.75 18.7989 7.01339 19.2678 7.48223C19.7366 7.95107 20 8.58696 20 9.25V16.125H18.125V25.5H13.125V16.125H11.25V9.25C11.25 8.58696 11.5134 7.95107 11.9822 7.48223C12.4511 7.01339 13.087 6.75 13.75 6.75Z" fill="white"/>
</svg>
