<svg width="27" height="27" viewBox="0 0 27 27" fill="none" xmlns="http://www.w3.org/2000/svg">
<path fill-rule="evenodd" clip-rule="evenodd" d="M13.5 0C6.04463 0 0 6.04463 0 13.5C0 20.9554 6.04463 27 13.5 27C20.9554 27 27 20.9554 27 13.5C27 6.04463 20.9554 0 13.5 0Z" fill="#C8C7CC"/>
<path fill-rule="evenodd" clip-rule="evenodd" d="M20.25 14.625H14.625V20.25C14.625 20.8721 14.121 21.375 13.5 21.375C12.879 21.375 12.375 20.8721 12.375 20.25V14.625H6.75C6.129 14.625 5.625 14.1221 5.625 13.5C5.625 12.8779 6.129 12.375 6.75 12.375H12.375V6.75C12.375 6.12788 12.879 5.625 13.5 5.625C14.121 5.625 14.625 6.12788 14.625 6.75V12.375H20.25C20.871 12.375 21.375 12.8779 21.375 13.5C21.375 14.1221 20.871 14.625 20.25 14.625Z" fill="white"/>
</svg>
