<svg width="24" height="24" viewBox="0 0 24 24" fill="none" xmlns="http://www.w3.org/2000/svg">
<path d="M15 15.999V13.999C15.45 13.776 16.737 12.244 16.872 11.047C17.226 11.02 17.782 10.695 17.946 9.412C18.034 8.723 17.684 8.336 17.472 8.214C17.472 8.214 18 7.211 18 6C18 3.572 17.047 1.5 15 1.5C15 1.5 14.289 0 12 0C7.758 0 6 2.721 6 6C6 7.104 6.528 8.214 6.528 8.214C6.316 8.336 5.966 8.724 6.054 9.412C6.218 10.695 6.774 11.02 7.128 11.047C7.263 12.244 8.55 13.776 9 13.999V15.999C8 18.999 0 16.999 0 23.999H24C24 16.999 16 18.999 15 15.999Z" fill="#1967D2"/>
</svg>
