<svg width="19" height="19" viewBox="0 0 19 19" fill="none" xmlns="http://www.w3.org/2000/svg">
<path fill-rule="evenodd" clip-rule="evenodd" d="M14.25 7.91667C14.25 11.4145 11.4145 14.25 7.91667 14.25C4.41886 14.25 1.58333 11.4145 1.58333 7.91667C1.58333 4.41886 4.41886 1.58333 7.91667 1.58333C11.4145 1.58333 14.25 4.41886 14.25 7.91667ZM0 7.91667C0 12.2889 3.54441 15.8333 7.91667 15.8333C9.81767 15.8333 11.5622 15.1633 12.9269 14.0465L17.6485 18.7681C17.9577 19.0773 18.459 19.0773 18.7681 18.7681C19.0773 18.459 19.0773 17.9577 18.7681 17.6485L14.0465 12.9269C15.1633 11.5622 15.8333 9.81767 15.8333 7.91667C15.8333 3.54441 12.2889 0 7.91667 0C3.54441 0 0 3.54441 0 7.91667Z" fill="black"/>
</svg>
