<svg width="24" height="24" viewBox="0 0 24 24" fill="none" xmlns="http://www.w3.org/2000/svg">
<path fill-rule="evenodd" clip-rule="evenodd" d="M23.391 11.079L3.02739 0.283702C2.72711 0.103566 2.37565 0 2 0C0.895431 0 0 0.895431 0 2V8C0 9.10457 0.895431 10 2 10L2.02552 9.99984L14 12L2.02552 14.0002L2 14C0.895431 14 0 14.8954 0 16V22C0 23.1046 0.895431 24 2 24C2.37565 24 2.7271 23.8964 3.02738 23.7163L23.391 12.921L23.3913 12.9205C23.7491 12.7682 24 12.4134 24 12C24 11.5866 23.7491 11.2318 23.3913 11.0795L23.391 11.079Z" fill="#1967D2"/>
</svg>
