<svg width="20" height="20" viewBox="0 0 20 20" fill="none" xmlns="http://www.w3.org/2000/svg">
<path fill-rule="evenodd" clip-rule="evenodd" d="M19.2308 9.23077H19.0985C18.7308 9.23077 18.4031 8.97154 18.3446 8.60846C18.3162 8.43231 18.2823 8.25769 18.2431 8.08538C18.1615 7.72846 18.3646 7.36769 18.7023 7.22769L18.8223 7.17769C19.2146 7.01538 19.4015 6.56538 19.2385 6.17231C19.0762 5.78 18.6262 5.59308 18.2331 5.75615L18.11 5.80692C17.7708 5.94769 17.3708 5.83385 17.1762 5.52231C17.0823 5.37154 16.9838 5.22385 16.8808 5.07923C16.6677 4.78077 16.7169 4.36846 16.9762 4.10923L17.07 4.01538C17.3708 3.71462 17.3708 3.22769 17.07 2.92769C16.7692 2.62692 16.2823 2.62692 15.9823 2.92769L15.8892 3.02308C15.63 3.28231 15.2177 3.33154 14.9192 3.11846C14.7746 3.01538 14.6269 2.91692 14.4762 2.82308C14.1646 2.62923 14.0508 2.22846 14.1915 1.88923L14.2423 1.76615C14.4046 1.37385 14.2185 0.923846 13.8262 0.760769C13.4338 0.598462 12.9838 0.784615 12.8208 1.17692L12.7708 1.29692C12.6308 1.63462 12.27 1.83769 11.9131 1.75615C11.7408 1.71692 11.5662 1.68308 11.39 1.65462C11.0285 1.59692 10.7692 1.26923 10.7692 0.901538V0.769231C10.7692 0.344615 10.4246 0 10 0C9.57538 0 9.23077 0.344615 9.23077 0.769231V0.901538C9.23077 1.26923 8.97154 1.59692 8.60846 1.65538C8.43231 1.68385 8.25769 1.71769 8.08538 1.75692C7.72846 1.83846 7.36769 1.63538 7.22769 1.29769L7.17769 1.17769C7.01538 0.785385 6.56538 0.598462 6.17231 0.761538C5.78 0.923846 5.59308 1.37385 5.75615 1.76692L5.80692 1.89C5.94846 2.22846 5.83538 2.62923 5.52308 2.82308C5.37231 2.91692 5.22462 3.01538 5.08077 3.11769C4.78231 3.33077 4.37 3.28231 4.11077 3.02308L4.01692 2.92923C3.71615 2.62846 3.22923 2.62846 2.92923 2.92923C2.62923 3.23 2.62923 3.71692 2.92923 4.01692L3.02308 4.11077C3.28231 4.37 3.33077 4.78154 3.11769 5.08077C3.01538 5.22462 2.91692 5.37231 2.82308 5.52308C2.62923 5.83538 2.22846 5.94846 1.88923 5.80769L1.76615 5.75692C1.37385 5.59462 0.923846 5.78077 0.760769 6.17308C0.598462 6.56538 0.784615 7.01538 1.17692 7.17846L1.29692 7.22846C1.63462 7.36846 1.83769 7.72923 1.75615 8.08615C1.71692 8.25846 1.68308 8.43308 1.65462 8.60923C1.59692 8.97154 1.26923 9.23077 0.901538 9.23077H0.769231C0.344615 9.23077 0 9.57538 0 10C0 10.4246 0.344615 10.7692 0.769231 10.7692H0.901538C1.26923 10.7692 1.59692 11.0285 1.65538 11.3915C1.68385 11.5677 1.71769 11.7423 1.75692 11.9146C1.83846 12.2715 1.63538 12.6323 1.29769 12.7723L1.17769 12.8223C0.785385 12.9846 0.598462 13.4346 0.761538 13.8277C0.923846 14.22 1.37385 14.4069 1.76692 14.2438L1.89 14.1931C2.22923 14.0523 2.62923 14.1662 2.82385 14.4777C2.91769 14.6285 3.01615 14.7762 3.11923 14.9208C3.33231 15.2192 3.28308 15.6315 3.02385 15.8908L2.93 15.9846C2.62923 16.2854 2.62923 16.7723 2.93 17.0723C3.23077 17.3723 3.71769 17.3731 4.01769 17.0723L4.11154 16.9785C4.37077 16.7192 4.78308 16.67 5.08154 16.8831C5.22615 16.9862 5.37385 17.0846 5.52462 17.1785C5.83615 17.3723 5.95 17.7731 5.80923 18.1123L5.75846 18.2354C5.59615 18.6277 5.78231 19.0777 6.17462 19.2408C6.56692 19.4031 7.01692 19.2169 7.18 18.8246L7.23 18.7046C7.37 18.3669 7.73077 18.1638 8.08769 18.2454C8.26 18.2846 8.43462 18.3185 8.61077 18.3469C8.97154 18.4031 9.23077 18.7308 9.23077 19.0985V19.2308C9.23077 19.6554 9.57538 20 10 20C10.4246 20 10.7692 19.6554 10.7692 19.2308V19.0985C10.7692 18.7308 11.0285 18.4031 11.3915 18.3446C11.5677 18.3162 11.7423 18.2823 11.9146 18.2431C12.2715 18.1615 12.6323 18.3646 12.7723 18.7023L12.8223 18.8223C12.9846 19.2146 13.4346 19.4015 13.8277 19.2385C14.22 19.0762 14.4069 18.6262 14.2438 18.2331L14.1931 18.11C14.0523 17.7708 14.1662 17.3708 14.4777 17.1762C14.6285 17.0823 14.7762 16.9838 14.9208 16.8808C15.2192 16.6677 15.6315 16.7169 15.8908 16.9762L15.9846 17.07C16.2854 17.3708 16.7723 17.3708 17.0723 17.07C17.3723 16.7692 17.3731 16.2823 17.0723 15.9823L16.9785 15.8885C16.7192 15.6292 16.67 15.2169 16.8831 14.9185C16.9862 14.7738 17.0846 14.6262 17.1785 14.4754C17.3723 14.1638 17.7731 14.05 18.1123 14.1908L18.2354 14.2415C18.6277 14.4038 19.0777 14.2177 19.2408 13.8254C19.4031 13.4331 19.2169 12.9831 18.8246 12.82L18.7046 12.77C18.3669 12.63 18.1638 12.2692 18.2454 11.9123C18.2846 11.74 18.3185 11.5654 18.3469 11.3892C18.4031 11.0285 18.7308 10.7692 19.0985 10.7692H19.2308C19.6554 10.7692 20 10.4246 20 10C20 9.57538 19.6554 9.23077 19.2308 9.23077ZM10 16.1538C6.60154 16.1538 3.84615 13.3985 3.84615 10C3.84615 6.60154 6.60154 3.84615 10 3.84615C13.3985 3.84615 16.1538 6.60154 16.1538 10C16.1538 13.3985 13.3985 16.1538 10 16.1538ZM10 11.5385C10.8497 11.5385 11.5385 10.8497 11.5385 10C11.5385 9.15033 10.8497 8.46154 10 8.46154C9.15033 8.46154 8.46154 9.15033 8.46154 10C8.46154 10.8497 9.15033 11.5385 10 11.5385Z" fill="black"/>
<path fill-rule="evenodd" clip-rule="evenodd" d="M7.20539 3.61969L10.445 9.23077H10.0006V9.55547L9.52689 9.28196L9.11253 9.99964L5.87308 4.38892L7.20539 3.61969ZM10.0006 9.99978L9.33462 10.3843L9.11253 9.99964L5.87305 15.6104L7.20535 16.3797L10.4446 10.7692H16.9237V9.23077H10.445L10.6669 9.61507L10.3854 9.77763L10.0006 9.55547V9.99978ZM10.0006 9.99978L10.3854 9.77763L10.8592 10.0512L10.4446 10.7692H10.0006V9.99978Z" fill="black"/>
</svg>
