<svg width="18" height="20" viewBox="0 0 18 20" fill="none" xmlns="http://www.w3.org/2000/svg">
<path d="M14 0.498291C15.934 0.498291 17.5018 2.06609 17.5018 4.00006C17.5018 5.93403 15.934 7.50183 14 7.50183C12.97 7.50183 12.0439 7.05716 11.4032 6.34934L6.84455 8.95376C6.94786 9.28416 7.00354 9.63561 7.00354 10.0001C7.00354 10.3645 6.94786 10.716 6.84455 11.0464L11.4023 13.6518C12.043 12.9434 12.9695 12.4983 14 12.4983C15.934 12.4983 17.5018 14.0661 17.5018 16.0001C17.5018 17.934 15.934 19.5018 14 19.5018C12.066 19.5018 10.4982 17.934 10.4982 16.0001C10.4982 15.6356 10.5539 15.2842 10.6572 14.9538L6.09951 12.3483C5.45873 13.0567 4.53223 13.5018 3.50177 13.5018C1.5678 13.5018 0 11.934 0 10.0001C0 8.06609 1.5678 6.49829 3.50177 6.49829C4.53173 6.49829 5.45784 6.94296 6.09859 7.65078L10.6572 5.04636C10.5539 4.71596 10.4982 4.36451 10.4982 4.00006C10.4982 2.06609 12.066 0.498291 14 0.498291ZM14 13.9983C12.8945 13.9983 11.9982 14.8945 11.9982 16.0001C11.9982 17.1056 12.8945 18.0018 14 18.0018C15.1055 18.0018 16.0018 17.1056 16.0018 16.0001C16.0018 14.8945 15.1055 13.9983 14 13.9983ZM3.50177 7.99829C2.39622 7.99829 1.5 8.89451 1.5 10.0001C1.5 11.1056 2.39622 12.0018 3.50177 12.0018C4.60732 12.0018 5.50354 11.1056 5.50354 10.0001C5.50354 8.89451 4.60732 7.99829 3.50177 7.99829ZM14 1.99829C12.8945 1.99829 11.9982 2.89451 11.9982 4.00006C11.9982 5.10561 12.8945 6.00183 14 6.00183C15.1055 6.00183 16.0018 5.10561 16.0018 4.00006C16.0018 2.89451 15.1055 1.99829 14 1.99829Z" fill="black"/>
</svg>
