<svg width="16" height="22" viewBox="0 0 16 22" fill="none" xmlns="http://www.w3.org/2000/svg">
<path fill-rule="evenodd" clip-rule="evenodd" d="M4.57143 3.3H11.4286L8 6.6L4.57143 3.3ZM0 18.5108V20.9C0 21.5072 0.512 22 1.14286 22H14.8571C15.488 22 16 21.5072 16 20.9V18.5108C16 17.6418 15.6343 16.7926 14.9954 16.1777L9.616 11L14.9954 5.8223C15.6434 5.1986 16 4.3703 16 3.4881V1.1C16 0.4928 15.488 0 14.8571 0H1.14286C0.512 0 0 0.4928 0 1.1V3.4881C0 4.3703 0.356571 5.1986 1.00457 5.8212L6.384 11L1.00457 16.1777C0.365714 16.7926 0 17.6418 0 18.5108Z" fill="#1967D2"/>
</svg>
