<svg width="20" height="20" viewBox="0 0 20 20" fill="none" xmlns="http://www.w3.org/2000/svg">
<path fill-rule="evenodd" clip-rule="evenodd" d="M10 0C4.4775 0 0 4.4775 0 10C0 15.5225 4.4775 20 10 20C15.5225 20 20 15.5225 20 10C20 4.4775 15.5225 0 10 0ZM10.8333 10.8333H4.1625C3.70417 10.8333 3.33333 10.4625 3.33333 10.0042V9.995C3.33333 9.5375 3.70417 9.16667 4.1625 9.16667H9.16667V2.49583C9.16667 2.0375 9.5375 1.66667 9.99583 1.66667H10.005C10.4625 1.66667 10.8333 2.0375 10.8333 2.49583V10.8333Z" fill="#1967D2"/>
</svg>
