<svg width="18" height="16" viewBox="0 0 18 16" fill="none" xmlns="http://www.w3.org/2000/svg">
<path d="M3.25 0H14.75C16.483 0 17.8992 1.35645 17.9949 3.06558L18 3.25V12.75C18 14.483 16.6435 15.8992 14.9344 15.9949L14.75 16H3.25C1.51697 16 0.100754 14.6435 0.00514483 12.9344L0 12.75V3.25C0 1.51697 1.35645 0.100754 3.06558 0.0051446L3.25 0H14.75H3.25ZM14.75 1.5H3.25C2.33183 1.5 1.57881 2.20711 1.5058 3.10647L1.5 3.25V12.75C1.5 13.6682 2.20711 14.4212 3.10647 14.4942L3.25 14.5H14.75C15.6682 14.5 16.4212 13.7929 16.4942 12.8935L16.5 12.75V3.25C16.5 2.33183 15.7929 1.57881 14.8935 1.5058L14.75 1.5ZM7.05279 5.58541C7.16256 5.36586 7.41206 5.26237 7.63962 5.32882L7.72361 5.3618L12.1056 7.55279C12.2023 7.60117 12.2808 7.67963 12.3292 7.77639C12.439 7.99594 12.372 8.25764 12.1824 8.39981L12.1056 8.44721L7.72361 10.6382C7.65418 10.6729 7.57762 10.691 7.5 10.691C7.25454 10.691 7.05039 10.5141 7.00806 10.2809L7 10.191V5.80902C7 5.73139 7.01807 5.65484 7.05279 5.58541Z" fill="#434343"/>
</svg>
