<svg width="20" height="12" viewBox="0 0 20 12" fill="none" xmlns="http://www.w3.org/2000/svg">
<path fill-rule="evenodd" clip-rule="evenodd" d="M12.6667 12H1.33333C0.596667 12 0 11.4033 0 10.6667V1.33333C0 0.596667 0.596667 0 1.33333 0H12.6667C13.4033 0 14 0.596667 14 1.33333V10.6667C14 11.4033 13.4033 12 12.6667 12ZM15.3333 4.66667V6V7.33333L18.8781 10.487C18.9972 10.5985 19.1573 10.6667 19.3333 10.6667C19.7015 10.6667 20 10.3682 20 10V6V2C20 1.63181 19.7015 1.33333 19.3333 1.33333C19.1573 1.33333 18.9972 1.40155 18.8781 1.51299L15.3333 4.66667Z" fill="black"/>
</svg>
